G04 #@! TF.FileFunction,Soldermask,Top*
%FSLAX46Y46*%
G04 Gerber Fmt 4.6, Leading zero omitted, Abs format (unit mm)*
G04 Created by KiCad (PCBNEW 4.0.7) date Mon Sep 16 14:17:58 2019*
%MOMM*%
%LPD*%
G01*
G04 APERTURE LIST*
%ADD10C,0.100000*%
%ADD11R,1.650000X1.400000*%
%ADD12R,3.900000X2.000000*%
%ADD13R,1.600000X1.600000*%
%ADD14R,0.900000X2.700000*%
%ADD15R,2.400000X2.900000*%
%ADD16C,1.300000*%
%ADD17R,3.150000X1.400000*%
%ADD18R,2.400000X1.000000*%
%ADD19R,2.100000X2.100000*%
%ADD20O,2.100000X2.100000*%
G04 APERTURE END LIST*
D10*
D11*
X159225000Y-81600000D03*
X159225000Y-83600000D03*
D12*
X162650000Y-84000000D03*
X168050000Y-84000000D03*
D13*
X161650000Y-92500000D03*
X159450000Y-92500000D03*
D14*
X162975000Y-118225000D03*
X163775000Y-118225000D03*
X164575000Y-118225000D03*
X165375000Y-118225000D03*
X166175000Y-118225000D03*
D15*
X160125000Y-118325000D03*
X160125000Y-123825000D03*
X169025000Y-118325000D03*
X169025000Y-123825000D03*
D16*
X162375000Y-120825000D03*
X166775000Y-120825000D03*
D17*
X156055000Y-86200000D03*
X150295000Y-86200000D03*
X150295000Y-82200000D03*
X156055000Y-82200000D03*
D18*
X154153952Y-94845000D03*
X154153952Y-96115000D03*
X154153952Y-97385000D03*
X154153952Y-98655000D03*
X154153952Y-99925000D03*
X154153952Y-101195000D03*
X154153952Y-102465000D03*
X154153952Y-103735000D03*
X154153952Y-105005000D03*
X154153952Y-106275000D03*
X154153952Y-107545000D03*
X154153952Y-108815000D03*
X154153952Y-110085000D03*
X154153952Y-111355000D03*
X163553952Y-111355000D03*
X163553952Y-110085000D03*
X163553952Y-108815000D03*
X163553952Y-107545000D03*
X163553952Y-106275000D03*
X163553952Y-105005000D03*
X163553952Y-103735000D03*
X163553952Y-102465000D03*
X163553952Y-101195000D03*
X163553952Y-99925000D03*
X163553952Y-98655000D03*
X163553952Y-97385000D03*
X163553952Y-96115000D03*
X163553952Y-94845000D03*
D19*
X154300000Y-118825000D03*
D20*
X151760000Y-118825000D03*
X149220000Y-118825000D03*
D19*
X168910000Y-91440000D03*
D20*
X168910000Y-93980000D03*
X168910000Y-96520000D03*
X168910000Y-99060000D03*
X168910000Y-101600000D03*
X168910000Y-104140000D03*
X168910000Y-106680000D03*
X168910000Y-109220000D03*
X168910000Y-111760000D03*
X168910000Y-114300000D03*
D19*
X148590000Y-91440000D03*
D20*
X148590000Y-93980000D03*
X148590000Y-96520000D03*
X148590000Y-99060000D03*
X148590000Y-101600000D03*
X148590000Y-104140000D03*
X148590000Y-106680000D03*
X148590000Y-109220000D03*
X148590000Y-111760000D03*
X148590000Y-114300000D03*
M02*
