%TF.GenerationSoftware,KiCad,Pcbnew,4.0.7*%
%TF.CreationDate,2019-09-16T14:18:56-03:00*%
%TF.ProjectId,pinguicaro,70696E6775696361726F2E6B69636164,rev?*%
%TF.FileFunction,Copper,L2,Bot,Signal*%
%FSLAX46Y46*%
G04 Gerber Fmt 4.6, Leading zero omitted, Abs format (unit mm)*
G04 Created by KiCad (PCBNEW 4.0.7) date Mon Sep 16 14:18:56 2019*
%MOMM*%
%LPD*%
G01*
G04 APERTURE LIST*
%ADD10C,0.100000*%
%ADD11R,1.250000X1.000000*%
%ADD12R,1.000000X1.250000*%
%ADD13R,0.700000X1.300000*%
%ADD14R,2.000000X4.500000*%
%ADD15R,1.700000X1.700000*%
%ADD16O,1.700000X1.700000*%
%ADD17C,0.600000*%
%ADD18C,0.250000*%
%ADD19C,0.254000*%
G04 APERTURE END LIST*
D10*
D11*
X156200000Y-99600000D03*
X156200000Y-101600000D03*
X156250000Y-106600000D03*
X156250000Y-104600000D03*
D12*
X156850000Y-113475000D03*
X158850000Y-113475000D03*
D13*
X156900000Y-95650000D03*
X158800000Y-95650000D03*
X156400000Y-92400000D03*
X154500000Y-92400000D03*
D14*
X159600000Y-107850000D03*
X159600000Y-99350000D03*
D15*
X154300000Y-118825000D03*
D16*
X151760000Y-118825000D03*
X149220000Y-118825000D03*
D15*
X168910000Y-91440000D03*
D16*
X168910000Y-93980000D03*
X168910000Y-96520000D03*
X168910000Y-99060000D03*
X168910000Y-101600000D03*
X168910000Y-104140000D03*
X168910000Y-106680000D03*
X168910000Y-109220000D03*
X168910000Y-111760000D03*
X168910000Y-114300000D03*
D15*
X148590000Y-91440000D03*
D16*
X148590000Y-93980000D03*
X148590000Y-96520000D03*
X148590000Y-99060000D03*
X148590000Y-101600000D03*
X148590000Y-104140000D03*
X148590000Y-106680000D03*
X148590000Y-109220000D03*
X148590000Y-111760000D03*
X148590000Y-114300000D03*
D17*
X152146000Y-103632000D03*
X160147000Y-115062000D03*
X161798000Y-119761000D03*
X165735000Y-120015000D03*
X163703000Y-82550000D03*
X166624000Y-82550000D03*
X158242000Y-102235000D03*
X154813000Y-84963000D03*
X151384000Y-84963000D03*
X161036000Y-104648000D03*
X152146000Y-104648000D03*
X155829000Y-108077000D03*
X159385000Y-111252000D03*
X165481000Y-107061000D03*
X157861000Y-92202000D03*
X153543000Y-113157000D03*
X160147000Y-94869000D03*
X162052000Y-118745000D03*
X164338000Y-116078000D03*
X162814000Y-114554000D03*
X155829000Y-97282000D03*
X154178000Y-90805000D03*
X151384000Y-83439000D03*
X154813000Y-83439000D03*
X153162000Y-93091000D03*
X165354000Y-93091000D03*
X165481000Y-94996000D03*
X165481000Y-96520000D03*
X165481000Y-99060000D03*
X165481000Y-100965000D03*
X165481000Y-102235000D03*
X152146000Y-96139000D03*
X152146000Y-97409000D03*
X152146000Y-99060000D03*
X152146000Y-101600000D03*
X152146000Y-106299000D03*
X152146000Y-107569000D03*
X152146000Y-109220000D03*
D18*
X156200000Y-99600000D02*
X156210000Y-99568000D01*
X156210000Y-99568000D02*
X152146000Y-103632000D01*
X159600000Y-99350000D02*
X159639000Y-99314000D01*
X159639000Y-99314000D02*
X159385000Y-99568000D01*
X159385000Y-99568000D02*
X156210000Y-99568000D01*
X156210000Y-99568000D02*
X156200000Y-99600000D01*
X158850000Y-113475000D02*
X158877000Y-113538000D01*
X158877000Y-113538000D02*
X158877000Y-113792000D01*
X158877000Y-113792000D02*
X160147000Y-115062000D01*
X161798000Y-119761000D02*
X162052000Y-120015000D01*
X162052000Y-120015000D02*
X165735000Y-120015000D01*
X163703000Y-82550000D02*
X166624000Y-82550000D01*
X156200000Y-101600000D02*
X156210000Y-101600000D01*
X156210000Y-101600000D02*
X156845000Y-102235000D01*
X156845000Y-102235000D02*
X158242000Y-102235000D01*
X154813000Y-84963000D02*
X151384000Y-84963000D01*
X148590000Y-114300000D02*
X150368000Y-112522000D01*
X150368000Y-112522000D02*
X157734000Y-112522000D01*
X157734000Y-112522000D02*
X158750000Y-113538000D01*
X158750000Y-113538000D02*
X158877000Y-113538000D01*
X158877000Y-113538000D02*
X158850000Y-113475000D01*
X156200000Y-101600000D02*
X156210000Y-101600000D01*
X158850000Y-113475000D02*
X158877000Y-113538000D01*
X158877000Y-113538000D02*
X158877000Y-112141000D01*
X158877000Y-112141000D02*
X155194000Y-108458000D01*
X155194000Y-108458000D02*
X155194000Y-105664000D01*
X155194000Y-105664000D02*
X156210000Y-104648000D01*
X156210000Y-104648000D02*
X156250000Y-104600000D01*
X158750000Y-113538000D02*
X158877000Y-113538000D01*
X158877000Y-113538000D02*
X158850000Y-113475000D01*
X156250000Y-104600000D02*
X156210000Y-104648000D01*
X156210000Y-104648000D02*
X161036000Y-104648000D01*
X158850000Y-113475000D02*
X158877000Y-113538000D01*
X156250000Y-104600000D02*
X156210000Y-104648000D01*
X156210000Y-104648000D02*
X152146000Y-104648000D01*
X156250000Y-104600000D02*
X156210000Y-104648000D01*
X156210000Y-104648000D02*
X156210000Y-101600000D01*
X156210000Y-101600000D02*
X156200000Y-101600000D01*
X156250000Y-106600000D02*
X156210000Y-106553000D01*
X156210000Y-106553000D02*
X156210000Y-107696000D01*
X156210000Y-107696000D02*
X155829000Y-108077000D01*
X156250000Y-106600000D02*
X156210000Y-106553000D01*
X156210000Y-106553000D02*
X157480000Y-107823000D01*
X157480000Y-107823000D02*
X159639000Y-107823000D01*
X159639000Y-107823000D02*
X159600000Y-107850000D01*
X159385000Y-111252000D02*
X160147000Y-110490000D01*
X160147000Y-110490000D02*
X161036000Y-110490000D01*
X161036000Y-110490000D02*
X164465000Y-107061000D01*
X164465000Y-107061000D02*
X165481000Y-107061000D01*
X156400000Y-92400000D02*
X156337000Y-92456000D01*
X157861000Y-92202000D02*
X157607000Y-92456000D01*
X157607000Y-92456000D02*
X156337000Y-92456000D01*
X156337000Y-92456000D02*
X156400000Y-92400000D01*
X153543000Y-113157000D02*
X153924000Y-113538000D01*
X153924000Y-113538000D02*
X156845000Y-113538000D01*
X156845000Y-113538000D02*
X156850000Y-113475000D01*
X160147000Y-94869000D02*
X159385000Y-95631000D01*
X159385000Y-95631000D02*
X158750000Y-95631000D01*
X158750000Y-95631000D02*
X158800000Y-95650000D01*
X162052000Y-118745000D02*
X161925000Y-118872000D01*
X161925000Y-118872000D02*
X154305000Y-118872000D01*
X154305000Y-118872000D02*
X154300000Y-118825000D01*
X164338000Y-116078000D02*
X162814000Y-114554000D01*
X156900000Y-95650000D02*
X156845000Y-95631000D01*
X156845000Y-95631000D02*
X156845000Y-96266000D01*
X156845000Y-96266000D02*
X155829000Y-97282000D01*
X154178000Y-90805000D02*
X154178000Y-92075000D01*
X154178000Y-92075000D02*
X154559000Y-92456000D01*
X154559000Y-92456000D02*
X154500000Y-92400000D01*
X151384000Y-83439000D02*
X154813000Y-83439000D01*
X154559000Y-92456000D02*
X154500000Y-92400000D01*
X154500000Y-92400000D02*
X154559000Y-92456000D01*
X154559000Y-92456000D02*
X153924000Y-93091000D01*
X153924000Y-93091000D02*
X153162000Y-93091000D01*
X165354000Y-93091000D02*
X167005000Y-91440000D01*
X167005000Y-91440000D02*
X168910000Y-91440000D01*
X168910000Y-93980000D02*
X167894000Y-94996000D01*
X167894000Y-94996000D02*
X165481000Y-94996000D01*
X165481000Y-96520000D02*
X168910000Y-96520000D01*
X168910000Y-99060000D02*
X165481000Y-99060000D01*
X168910000Y-101600000D02*
X168275000Y-100965000D01*
X168275000Y-100965000D02*
X165481000Y-100965000D01*
X168910000Y-104140000D02*
X167005000Y-102235000D01*
X167005000Y-102235000D02*
X165481000Y-102235000D01*
X148590000Y-93980000D02*
X150749000Y-96139000D01*
X150749000Y-96139000D02*
X152146000Y-96139000D01*
X148590000Y-96520000D02*
X149479000Y-97409000D01*
X149479000Y-97409000D02*
X152146000Y-97409000D01*
X152146000Y-99060000D02*
X148590000Y-99060000D01*
X148590000Y-101600000D02*
X152146000Y-101600000D01*
X148590000Y-104140000D02*
X150749000Y-106299000D01*
X150749000Y-106299000D02*
X152146000Y-106299000D01*
X148590000Y-106680000D02*
X149479000Y-107569000D01*
X149479000Y-107569000D02*
X152146000Y-107569000D01*
X152146000Y-109220000D02*
X148590000Y-109220000D01*
D19*
G36*
X170740000Y-126290000D02*
X146760000Y-126290000D01*
X146760000Y-118795907D01*
X147735000Y-118795907D01*
X147735000Y-118854093D01*
X147848039Y-119422378D01*
X148169946Y-119904147D01*
X148651715Y-120226054D01*
X149220000Y-120339093D01*
X149788285Y-120226054D01*
X150270054Y-119904147D01*
X150497702Y-119563447D01*
X150564817Y-119706358D01*
X150993076Y-120096645D01*
X151403110Y-120266476D01*
X151633000Y-120145155D01*
X151633000Y-118952000D01*
X151613000Y-118952000D01*
X151613000Y-118698000D01*
X151633000Y-118698000D01*
X151633000Y-117504845D01*
X151887000Y-117504845D01*
X151887000Y-118698000D01*
X151907000Y-118698000D01*
X151907000Y-118952000D01*
X151887000Y-118952000D01*
X151887000Y-120145155D01*
X152116890Y-120266476D01*
X152526924Y-120096645D01*
X152829937Y-119820499D01*
X152846838Y-119910317D01*
X152985910Y-120126441D01*
X153198110Y-120271431D01*
X153450000Y-120322440D01*
X155150000Y-120322440D01*
X155385317Y-120278162D01*
X155601441Y-120139090D01*
X155746431Y-119926890D01*
X155797440Y-119675000D01*
X155797440Y-119632000D01*
X160863112Y-119632000D01*
X160862838Y-119946167D01*
X161004883Y-120289943D01*
X161267673Y-120553192D01*
X161306372Y-120569261D01*
X161290189Y-120608233D01*
X161289812Y-121039873D01*
X161454646Y-121438800D01*
X161759595Y-121744282D01*
X162158233Y-121909811D01*
X162589873Y-121910188D01*
X162988800Y-121745354D01*
X163294282Y-121440405D01*
X163459811Y-121041767D01*
X163460044Y-120775000D01*
X165172537Y-120775000D01*
X165204673Y-120807192D01*
X165548201Y-120949838D01*
X165689891Y-120949961D01*
X165689812Y-121039873D01*
X165854646Y-121438800D01*
X166159595Y-121744282D01*
X166558233Y-121909811D01*
X166989873Y-121910188D01*
X167388800Y-121745354D01*
X167694282Y-121440405D01*
X167859811Y-121041767D01*
X167860188Y-120610127D01*
X167695354Y-120211200D01*
X167390405Y-119905718D01*
X166991767Y-119740189D01*
X166632992Y-119739876D01*
X166528117Y-119486057D01*
X166265327Y-119222808D01*
X165921799Y-119080162D01*
X165549833Y-119079838D01*
X165206057Y-119221883D01*
X165172882Y-119255000D01*
X162852633Y-119255000D01*
X162986838Y-118931799D01*
X162987162Y-118559833D01*
X162845117Y-118216057D01*
X162582327Y-117952808D01*
X162238799Y-117810162D01*
X161866833Y-117809838D01*
X161523057Y-117951883D01*
X161362660Y-118112000D01*
X155797440Y-118112000D01*
X155797440Y-117975000D01*
X155753162Y-117739683D01*
X155614090Y-117523559D01*
X155401890Y-117378569D01*
X155150000Y-117327560D01*
X153450000Y-117327560D01*
X153214683Y-117371838D01*
X152998559Y-117510910D01*
X152853569Y-117723110D01*
X152831699Y-117831107D01*
X152526924Y-117553355D01*
X152116890Y-117383524D01*
X151887000Y-117504845D01*
X151633000Y-117504845D01*
X151403110Y-117383524D01*
X150993076Y-117553355D01*
X150564817Y-117943642D01*
X150497702Y-118086553D01*
X150270054Y-117745853D01*
X149788285Y-117423946D01*
X149220000Y-117310907D01*
X148651715Y-117423946D01*
X148169946Y-117745853D01*
X147848039Y-118227622D01*
X147735000Y-118795907D01*
X146760000Y-118795907D01*
X146760000Y-93980000D01*
X147075907Y-93980000D01*
X147188946Y-94548285D01*
X147510853Y-95030054D01*
X147840026Y-95250000D01*
X147510853Y-95469946D01*
X147188946Y-95951715D01*
X147075907Y-96520000D01*
X147188946Y-97088285D01*
X147510853Y-97570054D01*
X147840026Y-97790000D01*
X147510853Y-98009946D01*
X147188946Y-98491715D01*
X147075907Y-99060000D01*
X147188946Y-99628285D01*
X147510853Y-100110054D01*
X147840026Y-100330000D01*
X147510853Y-100549946D01*
X147188946Y-101031715D01*
X147075907Y-101600000D01*
X147188946Y-102168285D01*
X147510853Y-102650054D01*
X147840026Y-102870000D01*
X147510853Y-103089946D01*
X147188946Y-103571715D01*
X147075907Y-104140000D01*
X147188946Y-104708285D01*
X147510853Y-105190054D01*
X147840026Y-105410000D01*
X147510853Y-105629946D01*
X147188946Y-106111715D01*
X147075907Y-106680000D01*
X147188946Y-107248285D01*
X147510853Y-107730054D01*
X147840026Y-107950000D01*
X147510853Y-108169946D01*
X147188946Y-108651715D01*
X147075907Y-109220000D01*
X147188946Y-109788285D01*
X147510853Y-110270054D01*
X147840026Y-110490000D01*
X147510853Y-110709946D01*
X147188946Y-111191715D01*
X147075907Y-111760000D01*
X147188946Y-112328285D01*
X147510853Y-112810054D01*
X147840026Y-113030000D01*
X147510853Y-113249946D01*
X147188946Y-113731715D01*
X147075907Y-114300000D01*
X147188946Y-114868285D01*
X147510853Y-115350054D01*
X147992622Y-115671961D01*
X148560907Y-115785000D01*
X148619093Y-115785000D01*
X149187378Y-115671961D01*
X149669147Y-115350054D01*
X149991054Y-114868285D01*
X150104093Y-114300000D01*
X150031210Y-113933592D01*
X150682802Y-113282000D01*
X152607890Y-113282000D01*
X152607838Y-113342167D01*
X152749883Y-113685943D01*
X153012673Y-113949192D01*
X153356201Y-114091838D01*
X153411270Y-114091886D01*
X153633160Y-114240148D01*
X153924000Y-114298000D01*
X155739816Y-114298000D01*
X155746838Y-114335317D01*
X155885910Y-114551441D01*
X156098110Y-114696431D01*
X156350000Y-114747440D01*
X157350000Y-114747440D01*
X157585317Y-114703162D01*
X157801441Y-114564090D01*
X157849134Y-114494289D01*
X157885910Y-114551441D01*
X158098110Y-114696431D01*
X158350000Y-114747440D01*
X158757638Y-114747440D01*
X159211878Y-115201680D01*
X159211838Y-115247167D01*
X159353883Y-115590943D01*
X159616673Y-115854192D01*
X159960201Y-115996838D01*
X160332167Y-115997162D01*
X160675943Y-115855117D01*
X160939192Y-115592327D01*
X161081838Y-115248799D01*
X161082162Y-114876833D01*
X161025280Y-114739167D01*
X161878838Y-114739167D01*
X162020883Y-115082943D01*
X162283673Y-115346192D01*
X162627201Y-115488838D01*
X162674077Y-115488879D01*
X163402878Y-116217680D01*
X163402838Y-116263167D01*
X163544883Y-116606943D01*
X163807673Y-116870192D01*
X164151201Y-117012838D01*
X164523167Y-117013162D01*
X164866943Y-116871117D01*
X165130192Y-116608327D01*
X165272838Y-116264799D01*
X165273162Y-115892833D01*
X165131117Y-115549057D01*
X164868327Y-115285808D01*
X164524799Y-115143162D01*
X164477923Y-115143121D01*
X163749122Y-114414320D01*
X163749162Y-114368833D01*
X163607117Y-114025057D01*
X163344327Y-113761808D01*
X163000799Y-113619162D01*
X162628833Y-113618838D01*
X162285057Y-113760883D01*
X162021808Y-114023673D01*
X161879162Y-114367201D01*
X161878838Y-114739167D01*
X161025280Y-114739167D01*
X160940117Y-114533057D01*
X160677327Y-114269808D01*
X160333799Y-114127162D01*
X160286923Y-114127121D01*
X159997440Y-113837638D01*
X159997440Y-112850000D01*
X159953162Y-112614683D01*
X159814090Y-112398559D01*
X159637000Y-112277559D01*
X159637000Y-112141000D01*
X159579148Y-111850161D01*
X159414401Y-111603599D01*
X158547639Y-110736837D01*
X158600000Y-110747440D01*
X160600000Y-110747440D01*
X160835317Y-110703162D01*
X161051441Y-110564090D01*
X161196431Y-110351890D01*
X161247440Y-110100000D01*
X161247440Y-105600000D01*
X161242605Y-105574304D01*
X161564943Y-105441117D01*
X161828192Y-105178327D01*
X161970838Y-104834799D01*
X161971162Y-104462833D01*
X161829117Y-104119057D01*
X161566327Y-103855808D01*
X161222799Y-103713162D01*
X160850833Y-103712838D01*
X160507057Y-103854883D01*
X160473882Y-103888000D01*
X157482549Y-103888000D01*
X157478162Y-103864683D01*
X157339090Y-103648559D01*
X157126890Y-103503569D01*
X156970000Y-103471798D01*
X156970000Y-102995000D01*
X157679537Y-102995000D01*
X157711673Y-103027192D01*
X158055201Y-103169838D01*
X158427167Y-103170162D01*
X158770943Y-103028117D01*
X159034192Y-102765327D01*
X159176838Y-102421799D01*
X159176990Y-102247440D01*
X160600000Y-102247440D01*
X160835317Y-102203162D01*
X161051441Y-102064090D01*
X161196431Y-101851890D01*
X161247440Y-101600000D01*
X161247440Y-97100000D01*
X161203162Y-96864683D01*
X161064090Y-96648559D01*
X160851890Y-96503569D01*
X160600000Y-96452560D01*
X159766546Y-96452560D01*
X159797440Y-96300000D01*
X159797440Y-96251897D01*
X159922401Y-96168401D01*
X160286680Y-95804122D01*
X160332167Y-95804162D01*
X160675943Y-95662117D01*
X160939192Y-95399327D01*
X161081838Y-95055799D01*
X161082162Y-94683833D01*
X160940117Y-94340057D01*
X160677327Y-94076808D01*
X160333799Y-93934162D01*
X159961833Y-93933838D01*
X159618057Y-94075883D01*
X159354808Y-94338673D01*
X159333603Y-94389740D01*
X159150000Y-94352560D01*
X158450000Y-94352560D01*
X158214683Y-94396838D01*
X157998559Y-94535910D01*
X157853569Y-94748110D01*
X157850919Y-94761197D01*
X157714090Y-94548559D01*
X157501890Y-94403569D01*
X157250000Y-94352560D01*
X156550000Y-94352560D01*
X156314683Y-94396838D01*
X156098559Y-94535910D01*
X155953569Y-94748110D01*
X155902560Y-95000000D01*
X155902560Y-96133638D01*
X155689320Y-96346878D01*
X155643833Y-96346838D01*
X155300057Y-96488883D01*
X155036808Y-96751673D01*
X154894162Y-97095201D01*
X154893838Y-97467167D01*
X155035883Y-97810943D01*
X155298673Y-98074192D01*
X155642201Y-98216838D01*
X156014167Y-98217162D01*
X156357943Y-98075117D01*
X156621192Y-97812327D01*
X156763838Y-97468799D01*
X156763879Y-97421923D01*
X157238362Y-96947440D01*
X157250000Y-96947440D01*
X157485317Y-96903162D01*
X157701441Y-96764090D01*
X157846431Y-96551890D01*
X157849081Y-96538803D01*
X157985910Y-96751441D01*
X158042978Y-96790434D01*
X158003569Y-96848110D01*
X157952560Y-97100000D01*
X157952560Y-98808000D01*
X157391687Y-98808000D01*
X157289090Y-98648559D01*
X157076890Y-98503569D01*
X156825000Y-98452560D01*
X155575000Y-98452560D01*
X155339683Y-98496838D01*
X155123559Y-98635910D01*
X154978569Y-98848110D01*
X154927560Y-99100000D01*
X154927560Y-99775638D01*
X153080981Y-101622217D01*
X153081162Y-101414833D01*
X152939117Y-101071057D01*
X152676327Y-100807808D01*
X152332799Y-100665162D01*
X151960833Y-100664838D01*
X151617057Y-100806883D01*
X151583882Y-100840000D01*
X149862954Y-100840000D01*
X149669147Y-100549946D01*
X149339974Y-100330000D01*
X149669147Y-100110054D01*
X149862954Y-99820000D01*
X151583537Y-99820000D01*
X151615673Y-99852192D01*
X151959201Y-99994838D01*
X152331167Y-99995162D01*
X152674943Y-99853117D01*
X152938192Y-99590327D01*
X153080838Y-99246799D01*
X153081162Y-98874833D01*
X152939117Y-98531057D01*
X152676327Y-98267808D01*
X152596341Y-98234595D01*
X152674943Y-98202117D01*
X152938192Y-97939327D01*
X153080838Y-97595799D01*
X153081162Y-97223833D01*
X152939117Y-96880057D01*
X152833290Y-96774046D01*
X152938192Y-96669327D01*
X153080838Y-96325799D01*
X153081162Y-95953833D01*
X152939117Y-95610057D01*
X152676327Y-95346808D01*
X152332799Y-95204162D01*
X151960833Y-95203838D01*
X151617057Y-95345883D01*
X151583882Y-95379000D01*
X151063802Y-95379000D01*
X150031210Y-94346408D01*
X150104093Y-93980000D01*
X149991054Y-93411715D01*
X149900484Y-93276167D01*
X152226838Y-93276167D01*
X152368883Y-93619943D01*
X152631673Y-93883192D01*
X152975201Y-94025838D01*
X153347167Y-94026162D01*
X153690943Y-93884117D01*
X153724118Y-93851000D01*
X153924000Y-93851000D01*
X154214839Y-93793148D01*
X154358077Y-93697440D01*
X154850000Y-93697440D01*
X155085317Y-93653162D01*
X155301441Y-93514090D01*
X155446431Y-93301890D01*
X155453191Y-93268510D01*
X155511673Y-93409699D01*
X155690302Y-93588327D01*
X155923691Y-93685000D01*
X156114250Y-93685000D01*
X156273000Y-93526250D01*
X156273000Y-92527000D01*
X156527000Y-92527000D01*
X156527000Y-93526250D01*
X156685750Y-93685000D01*
X156876309Y-93685000D01*
X157109698Y-93588327D01*
X157288327Y-93409699D01*
X157343637Y-93276167D01*
X164418838Y-93276167D01*
X164560883Y-93619943D01*
X164823673Y-93883192D01*
X165167201Y-94025838D01*
X165539167Y-94026162D01*
X165882943Y-93884117D01*
X166146192Y-93621327D01*
X166288838Y-93277799D01*
X166288879Y-93230923D01*
X167319802Y-92200000D01*
X167412560Y-92200000D01*
X167412560Y-92290000D01*
X167456838Y-92525317D01*
X167595910Y-92741441D01*
X167808110Y-92886431D01*
X167875541Y-92900086D01*
X167830853Y-92929946D01*
X167508946Y-93411715D01*
X167395907Y-93980000D01*
X167446829Y-94236000D01*
X166043463Y-94236000D01*
X166011327Y-94203808D01*
X165667799Y-94061162D01*
X165295833Y-94060838D01*
X164952057Y-94202883D01*
X164688808Y-94465673D01*
X164546162Y-94809201D01*
X164545838Y-95181167D01*
X164687883Y-95524943D01*
X164920709Y-95758176D01*
X164688808Y-95989673D01*
X164546162Y-96333201D01*
X164545838Y-96705167D01*
X164687883Y-97048943D01*
X164950673Y-97312192D01*
X165294201Y-97454838D01*
X165666167Y-97455162D01*
X166009943Y-97313117D01*
X166043118Y-97280000D01*
X167637046Y-97280000D01*
X167830853Y-97570054D01*
X168160026Y-97790000D01*
X167830853Y-98009946D01*
X167637046Y-98300000D01*
X166043463Y-98300000D01*
X166011327Y-98267808D01*
X165667799Y-98125162D01*
X165295833Y-98124838D01*
X164952057Y-98266883D01*
X164688808Y-98529673D01*
X164546162Y-98873201D01*
X164545838Y-99245167D01*
X164687883Y-99588943D01*
X164950673Y-99852192D01*
X165294201Y-99994838D01*
X165666167Y-99995162D01*
X166009943Y-99853117D01*
X166043118Y-99820000D01*
X167637046Y-99820000D01*
X167830853Y-100110054D01*
X167972950Y-100205000D01*
X166043463Y-100205000D01*
X166011327Y-100172808D01*
X165667799Y-100030162D01*
X165295833Y-100029838D01*
X164952057Y-100171883D01*
X164688808Y-100434673D01*
X164546162Y-100778201D01*
X164545838Y-101150167D01*
X164687883Y-101493943D01*
X164793710Y-101599954D01*
X164688808Y-101704673D01*
X164546162Y-102048201D01*
X164545838Y-102420167D01*
X164687883Y-102763943D01*
X164950673Y-103027192D01*
X165294201Y-103169838D01*
X165666167Y-103170162D01*
X166009943Y-103028117D01*
X166043118Y-102995000D01*
X166690198Y-102995000D01*
X167468790Y-103773592D01*
X167395907Y-104140000D01*
X167508946Y-104708285D01*
X167830853Y-105190054D01*
X168160026Y-105410000D01*
X167830853Y-105629946D01*
X167508946Y-106111715D01*
X167395907Y-106680000D01*
X167508946Y-107248285D01*
X167830853Y-107730054D01*
X168160026Y-107950000D01*
X167830853Y-108169946D01*
X167508946Y-108651715D01*
X167395907Y-109220000D01*
X167508946Y-109788285D01*
X167830853Y-110270054D01*
X168160026Y-110490000D01*
X167830853Y-110709946D01*
X167508946Y-111191715D01*
X167395907Y-111760000D01*
X167508946Y-112328285D01*
X167830853Y-112810054D01*
X168160026Y-113030000D01*
X167830853Y-113249946D01*
X167508946Y-113731715D01*
X167395907Y-114300000D01*
X167508946Y-114868285D01*
X167830853Y-115350054D01*
X168312622Y-115671961D01*
X168880907Y-115785000D01*
X168939093Y-115785000D01*
X169507378Y-115671961D01*
X169989147Y-115350054D01*
X170311054Y-114868285D01*
X170424093Y-114300000D01*
X170311054Y-113731715D01*
X169989147Y-113249946D01*
X169659974Y-113030000D01*
X169989147Y-112810054D01*
X170311054Y-112328285D01*
X170424093Y-111760000D01*
X170311054Y-111191715D01*
X169989147Y-110709946D01*
X169659974Y-110490000D01*
X169989147Y-110270054D01*
X170311054Y-109788285D01*
X170424093Y-109220000D01*
X170311054Y-108651715D01*
X169989147Y-108169946D01*
X169659974Y-107950000D01*
X169989147Y-107730054D01*
X170311054Y-107248285D01*
X170424093Y-106680000D01*
X170311054Y-106111715D01*
X169989147Y-105629946D01*
X169659974Y-105410000D01*
X169989147Y-105190054D01*
X170311054Y-104708285D01*
X170424093Y-104140000D01*
X170311054Y-103571715D01*
X169989147Y-103089946D01*
X169659974Y-102870000D01*
X169989147Y-102650054D01*
X170311054Y-102168285D01*
X170424093Y-101600000D01*
X170311054Y-101031715D01*
X169989147Y-100549946D01*
X169659974Y-100330000D01*
X169989147Y-100110054D01*
X170311054Y-99628285D01*
X170424093Y-99060000D01*
X170311054Y-98491715D01*
X169989147Y-98009946D01*
X169659974Y-97790000D01*
X169989147Y-97570054D01*
X170311054Y-97088285D01*
X170424093Y-96520000D01*
X170311054Y-95951715D01*
X169989147Y-95469946D01*
X169659974Y-95250000D01*
X169989147Y-95030054D01*
X170311054Y-94548285D01*
X170424093Y-93980000D01*
X170311054Y-93411715D01*
X169989147Y-92929946D01*
X169947548Y-92902150D01*
X169995317Y-92893162D01*
X170211441Y-92754090D01*
X170356431Y-92541890D01*
X170407440Y-92290000D01*
X170407440Y-90590000D01*
X170363162Y-90354683D01*
X170224090Y-90138559D01*
X170011890Y-89993569D01*
X169760000Y-89942560D01*
X168060000Y-89942560D01*
X167824683Y-89986838D01*
X167608559Y-90125910D01*
X167463569Y-90338110D01*
X167412560Y-90590000D01*
X167412560Y-90680000D01*
X167005000Y-90680000D01*
X166714161Y-90737852D01*
X166467599Y-90902599D01*
X165214320Y-92155878D01*
X165168833Y-92155838D01*
X164825057Y-92297883D01*
X164561808Y-92560673D01*
X164419162Y-92904201D01*
X164418838Y-93276167D01*
X157343637Y-93276167D01*
X157385000Y-93176310D01*
X157385000Y-92685750D01*
X157226250Y-92527000D01*
X156527000Y-92527000D01*
X156273000Y-92527000D01*
X156253000Y-92527000D01*
X156253000Y-92273000D01*
X156273000Y-92273000D01*
X156273000Y-91273750D01*
X156527000Y-91273750D01*
X156527000Y-92273000D01*
X157226250Y-92273000D01*
X157385000Y-92114250D01*
X157385000Y-91623690D01*
X157288327Y-91390301D01*
X157109698Y-91211673D01*
X156876309Y-91115000D01*
X156685750Y-91115000D01*
X156527000Y-91273750D01*
X156273000Y-91273750D01*
X156114250Y-91115000D01*
X155923691Y-91115000D01*
X155690302Y-91211673D01*
X155511673Y-91390301D01*
X155455346Y-91526287D01*
X155453162Y-91514683D01*
X155314090Y-91298559D01*
X155101890Y-91153569D01*
X155050026Y-91143066D01*
X155112838Y-90991799D01*
X155113162Y-90619833D01*
X154971117Y-90276057D01*
X154708327Y-90012808D01*
X154364799Y-89870162D01*
X153992833Y-89869838D01*
X153649057Y-90011883D01*
X153385808Y-90274673D01*
X153243162Y-90618201D01*
X153242838Y-90990167D01*
X153384883Y-91333943D01*
X153418000Y-91367118D01*
X153418000Y-92075000D01*
X153441828Y-92194791D01*
X153348799Y-92156162D01*
X152976833Y-92155838D01*
X152633057Y-92297883D01*
X152369808Y-92560673D01*
X152227162Y-92904201D01*
X152226838Y-93276167D01*
X149900484Y-93276167D01*
X149669147Y-92929946D01*
X149627548Y-92902150D01*
X149675317Y-92893162D01*
X149891441Y-92754090D01*
X150036431Y-92541890D01*
X150087440Y-92290000D01*
X150087440Y-90590000D01*
X150043162Y-90354683D01*
X149904090Y-90138559D01*
X149691890Y-89993569D01*
X149440000Y-89942560D01*
X147740000Y-89942560D01*
X147504683Y-89986838D01*
X147288559Y-90125910D01*
X147143569Y-90338110D01*
X147092560Y-90590000D01*
X147092560Y-92290000D01*
X147136838Y-92525317D01*
X147275910Y-92741441D01*
X147488110Y-92886431D01*
X147555541Y-92900086D01*
X147510853Y-92929946D01*
X147188946Y-93411715D01*
X147075907Y-93980000D01*
X146760000Y-93980000D01*
X146760000Y-83624167D01*
X150448838Y-83624167D01*
X150590883Y-83967943D01*
X150823709Y-84201176D01*
X150591808Y-84432673D01*
X150449162Y-84776201D01*
X150448838Y-85148167D01*
X150590883Y-85491943D01*
X150853673Y-85755192D01*
X151197201Y-85897838D01*
X151569167Y-85898162D01*
X151912943Y-85756117D01*
X151946118Y-85723000D01*
X154250537Y-85723000D01*
X154282673Y-85755192D01*
X154626201Y-85897838D01*
X154998167Y-85898162D01*
X155341943Y-85756117D01*
X155605192Y-85493327D01*
X155747838Y-85149799D01*
X155748162Y-84777833D01*
X155606117Y-84434057D01*
X155373291Y-84200824D01*
X155605192Y-83969327D01*
X155747838Y-83625799D01*
X155748162Y-83253833D01*
X155606117Y-82910057D01*
X155431532Y-82735167D01*
X162767838Y-82735167D01*
X162909883Y-83078943D01*
X163172673Y-83342192D01*
X163516201Y-83484838D01*
X163888167Y-83485162D01*
X164231943Y-83343117D01*
X164265118Y-83310000D01*
X166061537Y-83310000D01*
X166093673Y-83342192D01*
X166437201Y-83484838D01*
X166809167Y-83485162D01*
X167152943Y-83343117D01*
X167416192Y-83080327D01*
X167558838Y-82736799D01*
X167559162Y-82364833D01*
X167417117Y-82021057D01*
X167154327Y-81757808D01*
X166810799Y-81615162D01*
X166438833Y-81614838D01*
X166095057Y-81756883D01*
X166061882Y-81790000D01*
X164265463Y-81790000D01*
X164233327Y-81757808D01*
X163889799Y-81615162D01*
X163517833Y-81614838D01*
X163174057Y-81756883D01*
X162910808Y-82019673D01*
X162768162Y-82363201D01*
X162767838Y-82735167D01*
X155431532Y-82735167D01*
X155343327Y-82646808D01*
X154999799Y-82504162D01*
X154627833Y-82503838D01*
X154284057Y-82645883D01*
X154250882Y-82679000D01*
X151946463Y-82679000D01*
X151914327Y-82646808D01*
X151570799Y-82504162D01*
X151198833Y-82503838D01*
X150855057Y-82645883D01*
X150591808Y-82908673D01*
X150449162Y-83252201D01*
X150448838Y-83624167D01*
X146760000Y-83624167D01*
X146760000Y-80720000D01*
X170740000Y-80720000D01*
X170740000Y-126290000D01*
X170740000Y-126290000D01*
G37*
X170740000Y-126290000D02*
X146760000Y-126290000D01*
X146760000Y-118795907D01*
X147735000Y-118795907D01*
X147735000Y-118854093D01*
X147848039Y-119422378D01*
X148169946Y-119904147D01*
X148651715Y-120226054D01*
X149220000Y-120339093D01*
X149788285Y-120226054D01*
X150270054Y-119904147D01*
X150497702Y-119563447D01*
X150564817Y-119706358D01*
X150993076Y-120096645D01*
X151403110Y-120266476D01*
X151633000Y-120145155D01*
X151633000Y-118952000D01*
X151613000Y-118952000D01*
X151613000Y-118698000D01*
X151633000Y-118698000D01*
X151633000Y-117504845D01*
X151887000Y-117504845D01*
X151887000Y-118698000D01*
X151907000Y-118698000D01*
X151907000Y-118952000D01*
X151887000Y-118952000D01*
X151887000Y-120145155D01*
X152116890Y-120266476D01*
X152526924Y-120096645D01*
X152829937Y-119820499D01*
X152846838Y-119910317D01*
X152985910Y-120126441D01*
X153198110Y-120271431D01*
X153450000Y-120322440D01*
X155150000Y-120322440D01*
X155385317Y-120278162D01*
X155601441Y-120139090D01*
X155746431Y-119926890D01*
X155797440Y-119675000D01*
X155797440Y-119632000D01*
X160863112Y-119632000D01*
X160862838Y-119946167D01*
X161004883Y-120289943D01*
X161267673Y-120553192D01*
X161306372Y-120569261D01*
X161290189Y-120608233D01*
X161289812Y-121039873D01*
X161454646Y-121438800D01*
X161759595Y-121744282D01*
X162158233Y-121909811D01*
X162589873Y-121910188D01*
X162988800Y-121745354D01*
X163294282Y-121440405D01*
X163459811Y-121041767D01*
X163460044Y-120775000D01*
X165172537Y-120775000D01*
X165204673Y-120807192D01*
X165548201Y-120949838D01*
X165689891Y-120949961D01*
X165689812Y-121039873D01*
X165854646Y-121438800D01*
X166159595Y-121744282D01*
X166558233Y-121909811D01*
X166989873Y-121910188D01*
X167388800Y-121745354D01*
X167694282Y-121440405D01*
X167859811Y-121041767D01*
X167860188Y-120610127D01*
X167695354Y-120211200D01*
X167390405Y-119905718D01*
X166991767Y-119740189D01*
X166632992Y-119739876D01*
X166528117Y-119486057D01*
X166265327Y-119222808D01*
X165921799Y-119080162D01*
X165549833Y-119079838D01*
X165206057Y-119221883D01*
X165172882Y-119255000D01*
X162852633Y-119255000D01*
X162986838Y-118931799D01*
X162987162Y-118559833D01*
X162845117Y-118216057D01*
X162582327Y-117952808D01*
X162238799Y-117810162D01*
X161866833Y-117809838D01*
X161523057Y-117951883D01*
X161362660Y-118112000D01*
X155797440Y-118112000D01*
X155797440Y-117975000D01*
X155753162Y-117739683D01*
X155614090Y-117523559D01*
X155401890Y-117378569D01*
X155150000Y-117327560D01*
X153450000Y-117327560D01*
X153214683Y-117371838D01*
X152998559Y-117510910D01*
X152853569Y-117723110D01*
X152831699Y-117831107D01*
X152526924Y-117553355D01*
X152116890Y-117383524D01*
X151887000Y-117504845D01*
X151633000Y-117504845D01*
X151403110Y-117383524D01*
X150993076Y-117553355D01*
X150564817Y-117943642D01*
X150497702Y-118086553D01*
X150270054Y-117745853D01*
X149788285Y-117423946D01*
X149220000Y-117310907D01*
X148651715Y-117423946D01*
X148169946Y-117745853D01*
X147848039Y-118227622D01*
X147735000Y-118795907D01*
X146760000Y-118795907D01*
X146760000Y-93980000D01*
X147075907Y-93980000D01*
X147188946Y-94548285D01*
X147510853Y-95030054D01*
X147840026Y-95250000D01*
X147510853Y-95469946D01*
X147188946Y-95951715D01*
X147075907Y-96520000D01*
X147188946Y-97088285D01*
X147510853Y-97570054D01*
X147840026Y-97790000D01*
X147510853Y-98009946D01*
X147188946Y-98491715D01*
X147075907Y-99060000D01*
X147188946Y-99628285D01*
X147510853Y-100110054D01*
X147840026Y-100330000D01*
X147510853Y-100549946D01*
X147188946Y-101031715D01*
X147075907Y-101600000D01*
X147188946Y-102168285D01*
X147510853Y-102650054D01*
X147840026Y-102870000D01*
X147510853Y-103089946D01*
X147188946Y-103571715D01*
X147075907Y-104140000D01*
X147188946Y-104708285D01*
X147510853Y-105190054D01*
X147840026Y-105410000D01*
X147510853Y-105629946D01*
X147188946Y-106111715D01*
X147075907Y-106680000D01*
X147188946Y-107248285D01*
X147510853Y-107730054D01*
X147840026Y-107950000D01*
X147510853Y-108169946D01*
X147188946Y-108651715D01*
X147075907Y-109220000D01*
X147188946Y-109788285D01*
X147510853Y-110270054D01*
X147840026Y-110490000D01*
X147510853Y-110709946D01*
X147188946Y-111191715D01*
X147075907Y-111760000D01*
X147188946Y-112328285D01*
X147510853Y-112810054D01*
X147840026Y-113030000D01*
X147510853Y-113249946D01*
X147188946Y-113731715D01*
X147075907Y-114300000D01*
X147188946Y-114868285D01*
X147510853Y-115350054D01*
X147992622Y-115671961D01*
X148560907Y-115785000D01*
X148619093Y-115785000D01*
X149187378Y-115671961D01*
X149669147Y-115350054D01*
X149991054Y-114868285D01*
X150104093Y-114300000D01*
X150031210Y-113933592D01*
X150682802Y-113282000D01*
X152607890Y-113282000D01*
X152607838Y-113342167D01*
X152749883Y-113685943D01*
X153012673Y-113949192D01*
X153356201Y-114091838D01*
X153411270Y-114091886D01*
X153633160Y-114240148D01*
X153924000Y-114298000D01*
X155739816Y-114298000D01*
X155746838Y-114335317D01*
X155885910Y-114551441D01*
X156098110Y-114696431D01*
X156350000Y-114747440D01*
X157350000Y-114747440D01*
X157585317Y-114703162D01*
X157801441Y-114564090D01*
X157849134Y-114494289D01*
X157885910Y-114551441D01*
X158098110Y-114696431D01*
X158350000Y-114747440D01*
X158757638Y-114747440D01*
X159211878Y-115201680D01*
X159211838Y-115247167D01*
X159353883Y-115590943D01*
X159616673Y-115854192D01*
X159960201Y-115996838D01*
X160332167Y-115997162D01*
X160675943Y-115855117D01*
X160939192Y-115592327D01*
X161081838Y-115248799D01*
X161082162Y-114876833D01*
X161025280Y-114739167D01*
X161878838Y-114739167D01*
X162020883Y-115082943D01*
X162283673Y-115346192D01*
X162627201Y-115488838D01*
X162674077Y-115488879D01*
X163402878Y-116217680D01*
X163402838Y-116263167D01*
X163544883Y-116606943D01*
X163807673Y-116870192D01*
X164151201Y-117012838D01*
X164523167Y-117013162D01*
X164866943Y-116871117D01*
X165130192Y-116608327D01*
X165272838Y-116264799D01*
X165273162Y-115892833D01*
X165131117Y-115549057D01*
X164868327Y-115285808D01*
X164524799Y-115143162D01*
X164477923Y-115143121D01*
X163749122Y-114414320D01*
X163749162Y-114368833D01*
X163607117Y-114025057D01*
X163344327Y-113761808D01*
X163000799Y-113619162D01*
X162628833Y-113618838D01*
X162285057Y-113760883D01*
X162021808Y-114023673D01*
X161879162Y-114367201D01*
X161878838Y-114739167D01*
X161025280Y-114739167D01*
X160940117Y-114533057D01*
X160677327Y-114269808D01*
X160333799Y-114127162D01*
X160286923Y-114127121D01*
X159997440Y-113837638D01*
X159997440Y-112850000D01*
X159953162Y-112614683D01*
X159814090Y-112398559D01*
X159637000Y-112277559D01*
X159637000Y-112141000D01*
X159579148Y-111850161D01*
X159414401Y-111603599D01*
X158547639Y-110736837D01*
X158600000Y-110747440D01*
X160600000Y-110747440D01*
X160835317Y-110703162D01*
X161051441Y-110564090D01*
X161196431Y-110351890D01*
X161247440Y-110100000D01*
X161247440Y-105600000D01*
X161242605Y-105574304D01*
X161564943Y-105441117D01*
X161828192Y-105178327D01*
X161970838Y-104834799D01*
X161971162Y-104462833D01*
X161829117Y-104119057D01*
X161566327Y-103855808D01*
X161222799Y-103713162D01*
X160850833Y-103712838D01*
X160507057Y-103854883D01*
X160473882Y-103888000D01*
X157482549Y-103888000D01*
X157478162Y-103864683D01*
X157339090Y-103648559D01*
X157126890Y-103503569D01*
X156970000Y-103471798D01*
X156970000Y-102995000D01*
X157679537Y-102995000D01*
X157711673Y-103027192D01*
X158055201Y-103169838D01*
X158427167Y-103170162D01*
X158770943Y-103028117D01*
X159034192Y-102765327D01*
X159176838Y-102421799D01*
X159176990Y-102247440D01*
X160600000Y-102247440D01*
X160835317Y-102203162D01*
X161051441Y-102064090D01*
X161196431Y-101851890D01*
X161247440Y-101600000D01*
X161247440Y-97100000D01*
X161203162Y-96864683D01*
X161064090Y-96648559D01*
X160851890Y-96503569D01*
X160600000Y-96452560D01*
X159766546Y-96452560D01*
X159797440Y-96300000D01*
X159797440Y-96251897D01*
X159922401Y-96168401D01*
X160286680Y-95804122D01*
X160332167Y-95804162D01*
X160675943Y-95662117D01*
X160939192Y-95399327D01*
X161081838Y-95055799D01*
X161082162Y-94683833D01*
X160940117Y-94340057D01*
X160677327Y-94076808D01*
X160333799Y-93934162D01*
X159961833Y-93933838D01*
X159618057Y-94075883D01*
X159354808Y-94338673D01*
X159333603Y-94389740D01*
X159150000Y-94352560D01*
X158450000Y-94352560D01*
X158214683Y-94396838D01*
X157998559Y-94535910D01*
X157853569Y-94748110D01*
X157850919Y-94761197D01*
X157714090Y-94548559D01*
X157501890Y-94403569D01*
X157250000Y-94352560D01*
X156550000Y-94352560D01*
X156314683Y-94396838D01*
X156098559Y-94535910D01*
X155953569Y-94748110D01*
X155902560Y-95000000D01*
X155902560Y-96133638D01*
X155689320Y-96346878D01*
X155643833Y-96346838D01*
X155300057Y-96488883D01*
X155036808Y-96751673D01*
X154894162Y-97095201D01*
X154893838Y-97467167D01*
X155035883Y-97810943D01*
X155298673Y-98074192D01*
X155642201Y-98216838D01*
X156014167Y-98217162D01*
X156357943Y-98075117D01*
X156621192Y-97812327D01*
X156763838Y-97468799D01*
X156763879Y-97421923D01*
X157238362Y-96947440D01*
X157250000Y-96947440D01*
X157485317Y-96903162D01*
X157701441Y-96764090D01*
X157846431Y-96551890D01*
X157849081Y-96538803D01*
X157985910Y-96751441D01*
X158042978Y-96790434D01*
X158003569Y-96848110D01*
X157952560Y-97100000D01*
X157952560Y-98808000D01*
X157391687Y-98808000D01*
X157289090Y-98648559D01*
X157076890Y-98503569D01*
X156825000Y-98452560D01*
X155575000Y-98452560D01*
X155339683Y-98496838D01*
X155123559Y-98635910D01*
X154978569Y-98848110D01*
X154927560Y-99100000D01*
X154927560Y-99775638D01*
X153080981Y-101622217D01*
X153081162Y-101414833D01*
X152939117Y-101071057D01*
X152676327Y-100807808D01*
X152332799Y-100665162D01*
X151960833Y-100664838D01*
X151617057Y-100806883D01*
X151583882Y-100840000D01*
X149862954Y-100840000D01*
X149669147Y-100549946D01*
X149339974Y-100330000D01*
X149669147Y-100110054D01*
X149862954Y-99820000D01*
X151583537Y-99820000D01*
X151615673Y-99852192D01*
X151959201Y-99994838D01*
X152331167Y-99995162D01*
X152674943Y-99853117D01*
X152938192Y-99590327D01*
X153080838Y-99246799D01*
X153081162Y-98874833D01*
X152939117Y-98531057D01*
X152676327Y-98267808D01*
X152596341Y-98234595D01*
X152674943Y-98202117D01*
X152938192Y-97939327D01*
X153080838Y-97595799D01*
X153081162Y-97223833D01*
X152939117Y-96880057D01*
X152833290Y-96774046D01*
X152938192Y-96669327D01*
X153080838Y-96325799D01*
X153081162Y-95953833D01*
X152939117Y-95610057D01*
X152676327Y-95346808D01*
X152332799Y-95204162D01*
X151960833Y-95203838D01*
X151617057Y-95345883D01*
X151583882Y-95379000D01*
X151063802Y-95379000D01*
X150031210Y-94346408D01*
X150104093Y-93980000D01*
X149991054Y-93411715D01*
X149900484Y-93276167D01*
X152226838Y-93276167D01*
X152368883Y-93619943D01*
X152631673Y-93883192D01*
X152975201Y-94025838D01*
X153347167Y-94026162D01*
X153690943Y-93884117D01*
X153724118Y-93851000D01*
X153924000Y-93851000D01*
X154214839Y-93793148D01*
X154358077Y-93697440D01*
X154850000Y-93697440D01*
X155085317Y-93653162D01*
X155301441Y-93514090D01*
X155446431Y-93301890D01*
X155453191Y-93268510D01*
X155511673Y-93409699D01*
X155690302Y-93588327D01*
X155923691Y-93685000D01*
X156114250Y-93685000D01*
X156273000Y-93526250D01*
X156273000Y-92527000D01*
X156527000Y-92527000D01*
X156527000Y-93526250D01*
X156685750Y-93685000D01*
X156876309Y-93685000D01*
X157109698Y-93588327D01*
X157288327Y-93409699D01*
X157343637Y-93276167D01*
X164418838Y-93276167D01*
X164560883Y-93619943D01*
X164823673Y-93883192D01*
X165167201Y-94025838D01*
X165539167Y-94026162D01*
X165882943Y-93884117D01*
X166146192Y-93621327D01*
X166288838Y-93277799D01*
X166288879Y-93230923D01*
X167319802Y-92200000D01*
X167412560Y-92200000D01*
X167412560Y-92290000D01*
X167456838Y-92525317D01*
X167595910Y-92741441D01*
X167808110Y-92886431D01*
X167875541Y-92900086D01*
X167830853Y-92929946D01*
X167508946Y-93411715D01*
X167395907Y-93980000D01*
X167446829Y-94236000D01*
X166043463Y-94236000D01*
X166011327Y-94203808D01*
X165667799Y-94061162D01*
X165295833Y-94060838D01*
X164952057Y-94202883D01*
X164688808Y-94465673D01*
X164546162Y-94809201D01*
X164545838Y-95181167D01*
X164687883Y-95524943D01*
X164920709Y-95758176D01*
X164688808Y-95989673D01*
X164546162Y-96333201D01*
X164545838Y-96705167D01*
X164687883Y-97048943D01*
X164950673Y-97312192D01*
X165294201Y-97454838D01*
X165666167Y-97455162D01*
X166009943Y-97313117D01*
X166043118Y-97280000D01*
X167637046Y-97280000D01*
X167830853Y-97570054D01*
X168160026Y-97790000D01*
X167830853Y-98009946D01*
X167637046Y-98300000D01*
X166043463Y-98300000D01*
X166011327Y-98267808D01*
X165667799Y-98125162D01*
X165295833Y-98124838D01*
X164952057Y-98266883D01*
X164688808Y-98529673D01*
X164546162Y-98873201D01*
X164545838Y-99245167D01*
X164687883Y-99588943D01*
X164950673Y-99852192D01*
X165294201Y-99994838D01*
X165666167Y-99995162D01*
X166009943Y-99853117D01*
X166043118Y-99820000D01*
X167637046Y-99820000D01*
X167830853Y-100110054D01*
X167972950Y-100205000D01*
X166043463Y-100205000D01*
X166011327Y-100172808D01*
X165667799Y-100030162D01*
X165295833Y-100029838D01*
X164952057Y-100171883D01*
X164688808Y-100434673D01*
X164546162Y-100778201D01*
X164545838Y-101150167D01*
X164687883Y-101493943D01*
X164793710Y-101599954D01*
X164688808Y-101704673D01*
X164546162Y-102048201D01*
X164545838Y-102420167D01*
X164687883Y-102763943D01*
X164950673Y-103027192D01*
X165294201Y-103169838D01*
X165666167Y-103170162D01*
X166009943Y-103028117D01*
X166043118Y-102995000D01*
X166690198Y-102995000D01*
X167468790Y-103773592D01*
X167395907Y-104140000D01*
X167508946Y-104708285D01*
X167830853Y-105190054D01*
X168160026Y-105410000D01*
X167830853Y-105629946D01*
X167508946Y-106111715D01*
X167395907Y-106680000D01*
X167508946Y-107248285D01*
X167830853Y-107730054D01*
X168160026Y-107950000D01*
X167830853Y-108169946D01*
X167508946Y-108651715D01*
X167395907Y-109220000D01*
X167508946Y-109788285D01*
X167830853Y-110270054D01*
X168160026Y-110490000D01*
X167830853Y-110709946D01*
X167508946Y-111191715D01*
X167395907Y-111760000D01*
X167508946Y-112328285D01*
X167830853Y-112810054D01*
X168160026Y-113030000D01*
X167830853Y-113249946D01*
X167508946Y-113731715D01*
X167395907Y-114300000D01*
X167508946Y-114868285D01*
X167830853Y-115350054D01*
X168312622Y-115671961D01*
X168880907Y-115785000D01*
X168939093Y-115785000D01*
X169507378Y-115671961D01*
X169989147Y-115350054D01*
X170311054Y-114868285D01*
X170424093Y-114300000D01*
X170311054Y-113731715D01*
X169989147Y-113249946D01*
X169659974Y-113030000D01*
X169989147Y-112810054D01*
X170311054Y-112328285D01*
X170424093Y-111760000D01*
X170311054Y-111191715D01*
X169989147Y-110709946D01*
X169659974Y-110490000D01*
X169989147Y-110270054D01*
X170311054Y-109788285D01*
X170424093Y-109220000D01*
X170311054Y-108651715D01*
X169989147Y-108169946D01*
X169659974Y-107950000D01*
X169989147Y-107730054D01*
X170311054Y-107248285D01*
X170424093Y-106680000D01*
X170311054Y-106111715D01*
X169989147Y-105629946D01*
X169659974Y-105410000D01*
X169989147Y-105190054D01*
X170311054Y-104708285D01*
X170424093Y-104140000D01*
X170311054Y-103571715D01*
X169989147Y-103089946D01*
X169659974Y-102870000D01*
X169989147Y-102650054D01*
X170311054Y-102168285D01*
X170424093Y-101600000D01*
X170311054Y-101031715D01*
X169989147Y-100549946D01*
X169659974Y-100330000D01*
X169989147Y-100110054D01*
X170311054Y-99628285D01*
X170424093Y-99060000D01*
X170311054Y-98491715D01*
X169989147Y-98009946D01*
X169659974Y-97790000D01*
X169989147Y-97570054D01*
X170311054Y-97088285D01*
X170424093Y-96520000D01*
X170311054Y-95951715D01*
X169989147Y-95469946D01*
X169659974Y-95250000D01*
X169989147Y-95030054D01*
X170311054Y-94548285D01*
X170424093Y-93980000D01*
X170311054Y-93411715D01*
X169989147Y-92929946D01*
X169947548Y-92902150D01*
X169995317Y-92893162D01*
X170211441Y-92754090D01*
X170356431Y-92541890D01*
X170407440Y-92290000D01*
X170407440Y-90590000D01*
X170363162Y-90354683D01*
X170224090Y-90138559D01*
X170011890Y-89993569D01*
X169760000Y-89942560D01*
X168060000Y-89942560D01*
X167824683Y-89986838D01*
X167608559Y-90125910D01*
X167463569Y-90338110D01*
X167412560Y-90590000D01*
X167412560Y-90680000D01*
X167005000Y-90680000D01*
X166714161Y-90737852D01*
X166467599Y-90902599D01*
X165214320Y-92155878D01*
X165168833Y-92155838D01*
X164825057Y-92297883D01*
X164561808Y-92560673D01*
X164419162Y-92904201D01*
X164418838Y-93276167D01*
X157343637Y-93276167D01*
X157385000Y-93176310D01*
X157385000Y-92685750D01*
X157226250Y-92527000D01*
X156527000Y-92527000D01*
X156273000Y-92527000D01*
X156253000Y-92527000D01*
X156253000Y-92273000D01*
X156273000Y-92273000D01*
X156273000Y-91273750D01*
X156527000Y-91273750D01*
X156527000Y-92273000D01*
X157226250Y-92273000D01*
X157385000Y-92114250D01*
X157385000Y-91623690D01*
X157288327Y-91390301D01*
X157109698Y-91211673D01*
X156876309Y-91115000D01*
X156685750Y-91115000D01*
X156527000Y-91273750D01*
X156273000Y-91273750D01*
X156114250Y-91115000D01*
X155923691Y-91115000D01*
X155690302Y-91211673D01*
X155511673Y-91390301D01*
X155455346Y-91526287D01*
X155453162Y-91514683D01*
X155314090Y-91298559D01*
X155101890Y-91153569D01*
X155050026Y-91143066D01*
X155112838Y-90991799D01*
X155113162Y-90619833D01*
X154971117Y-90276057D01*
X154708327Y-90012808D01*
X154364799Y-89870162D01*
X153992833Y-89869838D01*
X153649057Y-90011883D01*
X153385808Y-90274673D01*
X153243162Y-90618201D01*
X153242838Y-90990167D01*
X153384883Y-91333943D01*
X153418000Y-91367118D01*
X153418000Y-92075000D01*
X153441828Y-92194791D01*
X153348799Y-92156162D01*
X152976833Y-92155838D01*
X152633057Y-92297883D01*
X152369808Y-92560673D01*
X152227162Y-92904201D01*
X152226838Y-93276167D01*
X149900484Y-93276167D01*
X149669147Y-92929946D01*
X149627548Y-92902150D01*
X149675317Y-92893162D01*
X149891441Y-92754090D01*
X150036431Y-92541890D01*
X150087440Y-92290000D01*
X150087440Y-90590000D01*
X150043162Y-90354683D01*
X149904090Y-90138559D01*
X149691890Y-89993569D01*
X149440000Y-89942560D01*
X147740000Y-89942560D01*
X147504683Y-89986838D01*
X147288559Y-90125910D01*
X147143569Y-90338110D01*
X147092560Y-90590000D01*
X147092560Y-92290000D01*
X147136838Y-92525317D01*
X147275910Y-92741441D01*
X147488110Y-92886431D01*
X147555541Y-92900086D01*
X147510853Y-92929946D01*
X147188946Y-93411715D01*
X147075907Y-93980000D01*
X146760000Y-93980000D01*
X146760000Y-83624167D01*
X150448838Y-83624167D01*
X150590883Y-83967943D01*
X150823709Y-84201176D01*
X150591808Y-84432673D01*
X150449162Y-84776201D01*
X150448838Y-85148167D01*
X150590883Y-85491943D01*
X150853673Y-85755192D01*
X151197201Y-85897838D01*
X151569167Y-85898162D01*
X151912943Y-85756117D01*
X151946118Y-85723000D01*
X154250537Y-85723000D01*
X154282673Y-85755192D01*
X154626201Y-85897838D01*
X154998167Y-85898162D01*
X155341943Y-85756117D01*
X155605192Y-85493327D01*
X155747838Y-85149799D01*
X155748162Y-84777833D01*
X155606117Y-84434057D01*
X155373291Y-84200824D01*
X155605192Y-83969327D01*
X155747838Y-83625799D01*
X155748162Y-83253833D01*
X155606117Y-82910057D01*
X155431532Y-82735167D01*
X162767838Y-82735167D01*
X162909883Y-83078943D01*
X163172673Y-83342192D01*
X163516201Y-83484838D01*
X163888167Y-83485162D01*
X164231943Y-83343117D01*
X164265118Y-83310000D01*
X166061537Y-83310000D01*
X166093673Y-83342192D01*
X166437201Y-83484838D01*
X166809167Y-83485162D01*
X167152943Y-83343117D01*
X167416192Y-83080327D01*
X167558838Y-82736799D01*
X167559162Y-82364833D01*
X167417117Y-82021057D01*
X167154327Y-81757808D01*
X166810799Y-81615162D01*
X166438833Y-81614838D01*
X166095057Y-81756883D01*
X166061882Y-81790000D01*
X164265463Y-81790000D01*
X164233327Y-81757808D01*
X163889799Y-81615162D01*
X163517833Y-81614838D01*
X163174057Y-81756883D01*
X162910808Y-82019673D01*
X162768162Y-82363201D01*
X162767838Y-82735167D01*
X155431532Y-82735167D01*
X155343327Y-82646808D01*
X154999799Y-82504162D01*
X154627833Y-82503838D01*
X154284057Y-82645883D01*
X154250882Y-82679000D01*
X151946463Y-82679000D01*
X151914327Y-82646808D01*
X151570799Y-82504162D01*
X151198833Y-82503838D01*
X150855057Y-82645883D01*
X150591808Y-82908673D01*
X150449162Y-83252201D01*
X150448838Y-83624167D01*
X146760000Y-83624167D01*
X146760000Y-80720000D01*
X170740000Y-80720000D01*
X170740000Y-126290000D01*
M02*
