M48
;DRILL file {KiCad 4.0.7} date Mon Sep 16 14:20:52 2019
;FORMAT={-:-/ absolute / inch / decimal}
FMAT,2
INCH,TZ
T1C0.016
T2C0.039
T3C0.035
%
G90
G05
M72
T1
X5.96Y-3.285
X5.96Y-3.345
X5.99Y-3.785
X5.99Y-3.835
X5.99Y-3.9
X5.99Y-4.
X5.99Y-4.08
X5.99Y-4.12
X5.99Y-4.185
X5.99Y-4.235
X5.99Y-4.3
X6.03Y-3.665
X6.045Y-4.455
X6.07Y-3.575
X6.095Y-3.285
X6.095Y-3.345
X6.135Y-3.83
X6.135Y-4.255
X6.215Y-3.63
X6.23Y-4.025
X6.275Y-4.38
X6.305Y-3.735
X6.305Y-4.53
X6.34Y-4.12
X6.37Y-4.715
X6.38Y-4.675
X6.41Y-4.51
X6.445Y-3.25
X6.47Y-4.57
X6.51Y-3.665
X6.515Y-3.74
X6.515Y-3.8
X6.515Y-3.9
X6.515Y-3.975
X6.515Y-4.025
X6.515Y-4.215
X6.525Y-4.725
X6.56Y-3.25
T2
X5.85Y-3.6
X5.85Y-3.7
X5.85Y-3.8
X5.85Y-3.9
X5.85Y-4.
X5.85Y-4.1
X5.85Y-4.2
X5.85Y-4.3
X5.85Y-4.4
X5.85Y-4.5
X5.8748Y-4.6781
X5.9748Y-4.6781
X6.0748Y-4.6781
X6.65Y-3.6
X6.65Y-3.7
X6.65Y-3.8
X6.65Y-3.9
X6.65Y-4.
X6.65Y-4.1
X6.65Y-4.2
X6.65Y-4.3
X6.65Y-4.4
X6.65Y-4.5
T3
X6.3927Y-4.7569
X6.5659Y-4.7569
T0
M30
